# xmcd CD database file
#
# Track frame offsets:
#	150
#	21732
#	45150
#
# Disc length: 881 seconds
#
# Revision: 0
# Processed by: cddbd v1.5.1PL2 Copyright (c) Steve Scherf et al.
# Submitted via: CDex 1.51
#
DISCID=1d036f03
DTITLE=Ohana - 予感
DYEAR=2006
DGENRE=J ポップ
TTITLE0=予感
TTITLE1=ohana song
TTITLE2=Don't Know Why
EXTD=YEAR: 2006
EXTT0=
EXTT1=
EXTT2=
PLAYORDER=
